<svg xmlns="http://www.w3.org/2000/svg" width="32" height="32" viewBox="0 0 32 32">
  <defs>
    <!-- Circular mask for 100% rounded appearance -->
    <mask id="circle-mask">
      <circle cx="16" cy="16" r="16" fill="white"/>
    </mask>
    <clipPath id="a">
      <path d="M0 0h32v32H0Zm0 0" />
    </clipPath>
    <clipPath id="b">
      <path d="M0 0h32v32H0Zm0 0" />
    </clipPath>
    <clipPath id="c">
      <path d="M16 0C24.837 0 32 7.163 32 16c0 8.837-7.163 16-16 16C7.163 32 0 24.837 0 16 0 7.163 7.163 0 16 0Zm0 0" />
    </clipPath>
    <clipPath id="d">
      <path d="M5.6 2.9h16.1v20.3H5.6Zm0 0" />
    </clipPath>
    <clipPath id="e">
      <path d="M10.5 9.1h16.1v19.9H10.5Zm0 0" />
    </clipPath>
  </defs>

  <!-- Apply circular mask to entire logo -->
  <g mask="url(#circle-mask)">
    <!-- White background circle -->
    <g clipPath="url(#a)">
      <path d="M0 0h32v32H0Zm0 0" style="stroke: none; fillRule: nonzero; fill: #fff; fillOpacity: 1;" />
    </g>
    <g clipPath="url(#b)">
      <g clipPath="url(#c)">
        <path d="M0 0h32v32H0Zm0 0" style="stroke: none; fillRule: nonzero; fill: #fff; fillOpacity: 1;" />
      </g>
    </g>

    <!-- SecPilot logo paths (scaled to fit 32x32) -->
    <g clipPath="url(#d)">
      <path d="M20.5 17.6c.74-.76.86-1.62.06-2.43-.84-.85-1.73-.75-2.56.03-.84.79-1.64 1.64-2.46 2.45-1.71 1.67-3.77 1.81-5.25.36-1.53-1.49-1.42-3.62.3-5.36 1.43-1.44 2.9-2.84 4.29-4.31 1.73-1.83 1.95-3.8.65-5.43L7.37 16.21c-2.32 2.51-1.98 6.72.51 9.22 2.5 2.52 6.6 2.84 9.22.63 1.25-1.05 2.38-2.26 3.52-3.44Zm0 0" style="stroke: none; fillRule: nonzero; fill: #2a39c0; fillOpacity: 1;" />
    </g>
    <g clipPath="url(#e)">
      <path d="M24.1 11.4c-2.5-2.52-6.6-2.84-9.22-.63-1.25 1.05-2.38 2.26-3.52 3.44-.74.76-.86 1.62-.06 2.43.84.85 1.73.75 2.56-.03.84-.79 1.64-1.64 2.46-2.45 1.71-1.67 3.77-1.81 5.25-.36 1.53 1.49 1.42 3.62-.31 5.36-1.42 1.45-2.9 2.84-4.29 4.31-1.73 1.83-1.95 3.81-.65 5.43l8.29-8.29c2.32-2.51 1.98-6.72-.51-9.21Zm0 0" style="stroke: none; fillRule: nonzero; fill: #000; fillOpacity: 1;" />
    </g>
  </g>
</svg>
