<svg xmlns="http://www.w3.org/2000/svg" xmlns:xlink="http://www.w3.org/1999/xlink" width="61" zoomAndPan="magnify" viewBox="0 0 45.75 45.749998" height="61" preserveAspectRatio="xMidYMid meet" version="1.2"><defs><clipPath id="f3c38be445"><path d="M 0 0 L 45.5 0 L 45.5 45.5 L 0 45.5 Z M 0 0 "/></clipPath><clipPath id="5d3cfed0fd"><path d="M 0 0 L 45.5 0 L 45.5 45.5 L 0 45.5 Z M 0 0 "/></clipPath><clipPath id="3c62879111"><path d="M 22.75 0 C 35.3125 0 45.5 10.183594 45.5 22.75 C 45.5 35.3125 35.3125 45.5 22.75 45.5 C 10.183594 45.5 0 35.3125 0 22.75 C 0 10.183594 10.183594 0 22.75 0 Z M 22.75 0 "/></clipPath><clipPath id="93d9096ea2"><path d="M 8.285156 11.917969 L 37.378906 11.917969 L 37.378906 33.546875 L 8.285156 33.546875 Z M 8.285156 11.917969 "/></clipPath></defs><g id="8d5ea037e8"><g clip-rule="nonzero" clip-path="url(#f3c38be445)"><path style=" stroke:none;fill-rule:nonzero;fill:#ffffff;fill-opacity:1;" d="M 0 0 L 45.5 0 L 45.5 45.5 L 0 45.5 Z M 0 0 "/></g><g clip-rule="nonzero" clip-path="url(#5d3cfed0fd)"><g clip-rule="nonzero" clip-path="url(#3c62879111)"><path style=" stroke:none;fill-rule:nonzero;fill:#ffffff;fill-opacity:1;" d="M 0 0 L 45.5 0 L 45.5 45.5 L 0 45.5 Z M 0 0 "/></g></g><g clip-rule="nonzero" clip-path="url(#93d9096ea2)"><path style=" stroke:none;fill-rule:nonzero;fill:#000000;fill-opacity:1;" d="M 32.417969 33.507812 L 37.375 33.507812 L 37.375 18.15625 C 37.375 15.132812 35.246094 12.597656 32.417969 11.988281 Z M 21.191406 30.429688 L 28.757812 17.484375 C 28.757812 17.484375 28.757812 17.480469 28.757812 17.480469 L 28.757812 11.953125 C 26.988281 12.285156 25.40625 13.371094 24.480469 14.960938 L 16.917969 27.90625 C 16.679688 28.3125 16.246094 28.5625 15.777344 28.5625 L 14.5625 28.5625 C 13.835938 28.5625 13.242188 27.96875 13.242188 27.234375 L 13.242188 11.914062 L 8.285156 11.914062 L 8.285156 27.234375 C 8.285156 30.714844 11.101562 33.546875 14.5625 33.546875 L 15.777344 33.546875 C 17.996094 33.546875 20.070312 32.351562 21.191406 30.429688 Z M 21.191406 30.429688 "/></g></g></svg>