<svg xmlns="http://www.w3.org/2000/svg" xmlns:xlink="http://www.w3.org/1999/xlink" width="61" zoomAndPan="magnify" viewBox="0 0 45.75 45.749998" height="61" preserveAspectRatio="xMidYMid meet" version="1.2"><defs><clipPath id="3b9133149e"><path d="M 0 0 L 45.5 0 L 45.5 45.5 L 0 45.5 Z M 0 0 "/></clipPath><clipPath id="e3149a9a22"><path d="M 0 0 L 45.5 0 L 45.5 45.5 L 0 45.5 Z M 0 0 "/></clipPath><clipPath id="ece2d575c8"><path d="M 22.75 0 C 35.3125 0 45.5 10.183594 45.5 22.75 C 45.5 35.3125 35.3125 45.5 22.75 45.5 C 10.183594 45.5 0 35.3125 0 22.75 C 0 10.183594 10.183594 0 22.75 0 Z M 22.75 0 "/></clipPath><clipPath id="81742d24c9"><path d="M 8 4.121094 L 31 4.121094 L 31 33 L 8 33 Z M 8 4.121094 "/></clipPath><clipPath id="568c0bad94"><path d="M 15 13 L 38 13 L 38 41.417969 L 15 41.417969 Z M 15 13 "/></clipPath></defs><g id="fde8a82144"><g clip-rule="nonzero" clip-path="url(#3b9133149e)"><path style=" stroke:none;fill-rule:nonzero;fill:#ffffff;fill-opacity:1;" d="M 0 0 L 45.5 0 L 45.5 45.5 L 0 45.5 Z M 0 0 "/></g><g clip-rule="nonzero" clip-path="url(#e3149a9a22)"><g clip-rule="nonzero" clip-path="url(#ece2d575c8)"><path style=" stroke:none;fill-rule:nonzero;fill:#ffffff;fill-opacity:1;" d="M 0 0 L 45.5 0 L 45.5 45.5 L 0 45.5 Z M 0 0 "/></g></g><g clip-rule="nonzero" clip-path="url(#81742d24c9)"><path style=" stroke:none;fill-rule:nonzero;fill:#2a39c0;fill-opacity:1;" d="M 29.230469 25.113281 C 30.289062 24.03125 30.453125 22.796875 29.320312 21.648438 C 28.128906 20.4375 26.855469 20.578125 25.679688 21.6875 C 24.480469 22.820312 23.34375 24.023438 22.167969 25.183594 C 19.738281 27.570312 16.789062 27.765625 14.671875 25.695312 C 12.492188 23.566406 12.652344 20.535156 15.105469 18.046875 C 17.136719 15.988281 19.238281 13.996094 21.226562 11.898438 C 23.695312 9.289062 24.011719 6.480469 22.15625 4.148438 L 10.335938 15.96875 C 7.03125 19.542969 7.511719 25.542969 11.0625 29.117188 C 14.625 32.707031 20.464844 33.164062 24.210938 30.015625 C 25.996094 28.511719 27.601562 26.789062 29.230469 25.113281 Z M 29.230469 25.113281 "/></g><g clip-rule="nonzero" clip-path="url(#568c0bad94)"><path style=" stroke:none;fill-rule:nonzero;fill:#000000;fill-opacity:1;" d="M 34.332031 16.265625 C 30.769531 12.679688 24.929688 12.21875 21.183594 15.367188 C 19.398438 16.871094 17.792969 18.59375 16.164062 20.269531 C 15.105469 21.351562 14.941406 22.585938 16.074219 23.734375 C 17.269531 24.945312 18.539062 24.804688 19.714844 23.695312 C 20.914062 22.5625 22.050781 21.359375 23.226562 20.203125 C 25.65625 17.816406 28.605469 17.617188 30.722656 19.6875 C 32.902344 21.816406 32.742188 24.847656 30.285156 27.335938 C 28.257812 29.398438 26.15625 31.386719 24.167969 33.484375 C 21.699219 36.09375 21.382812 38.90625 23.238281 41.234375 L 35.058594 29.417969 C 38.363281 25.839844 37.882812 19.839844 34.332031 16.265625 Z M 34.332031 16.265625 "/></g></g></svg>